<svg width="512" height="512" xmlns="http://www.w3.org/2000/svg">
  <g>
   <path fill="#8a9ba8" d="m296,317.139l0,-247.139c0,-38.598 -31.402,-70 -70,-70s-70,31.402 -70,70l0,247.139c-25.486,20.986 -40,51.634 -40,84.861c0,60.654 49.346,110 110,110s110,-49.346 110,-110c0,-33.228 -14.514,-63.875 -40,-84.861zm-70,174.861c-49.626,0 -90,-40.374 -90,-90c0,-28.577 13.124,-54.824 36.006,-72.012c2.515,-1.889 3.994,-4.851 3.994,-7.996l0,-251.992c0,-27.57 22.43,-50 50,-50s50,22.43 50,50l0,251.993c0,3.145 1.479,6.107 3.994,7.996c22.882,17.187 36.006,43.434 36.006,72.011c0,49.626 -40.374,90 -90,90z"/>
   <path fill="#8a9ba8" d="m326,60l60,0c5.522,0 10,-4.477 10,-10s-4.478,-10 -10,-10l-60,0c-5.522,0 -10,4.477 -10,10s4.478,10 10,10z"/>
   <path fill="#8a9ba8" d="m326,120l40,0c5.522,0 10,-4.477 10,-10s-4.478,-10 -10,-10l-40,0c-5.522,0 -10,4.477 -10,10s4.478,10 10,10z"/>
   <path fill="#8a9ba8" d="m386,160l-60,0c-5.522,0 -10,4.477 -10,10s4.478,10 10,10l60,0c5.522,0 10,-4.477 10,-10s-4.478,-10 -10,-10z"/>
   <path fill="#8a9ba8" d="m326,240l40,0c5.522,0 10,-4.477 10,-10s-4.478,-10 -10,-10l-40,0c-5.522,0 -10,4.477 -10,10s4.478,10 10,10z"/>
   <path fill="#8a9ba8" d="m386,280l-60,0c-5.522,0 -10,4.477 -10,10s4.478,10 10,10l60,0c5.522,0 10,-4.477 10,-10s-4.478,-10 -10,-10z"/>
   <path fill="#8a9ba8" d="m236,353.006l0,-283.006c0,-5.523 -4.477,-10 -10,-10s-10,4.477 -10,10l0,283.006c-22.795,4.646 -40,24.848 -40,48.994c0,27.57 22.43,50 50,50s50,-22.43 50,-50c0,-24.146 -17.205,-44.348 -40,-48.994z"/>
  </g>
</svg>